<?xml version="1.0" encoding="UTF-8" standalone="no"?>
<svg
   xmlns:dc="http://purl.org/dc/elements/1.1/"
   xmlns:cc="http://creativecommons.org/ns#"
   xmlns:rdf="http://www.w3.org/1999/02/22-rdf-syntax-ns#"
   xmlns:svg="http://www.w3.org/2000/svg"
   xmlns="http://www.w3.org/2000/svg"
   xmlns:xlink="http://www.w3.org/1999/xlink"
   version="1.1"
   id="svg2"
   viewBox="0 0 500.00001 200"
   height="200"
   width="500">
  <defs
     id="defs4">
    <linearGradient
       id="linearGradient4229">
      <stop
         id="stop4231"
         offset="0"
         style="stop-color:#67371a;stop-opacity:1" />
      <stop
         id="stop4233"
         offset="1"
         style="stop-color:#49ac5d;stop-opacity:0.87349397" />
    </linearGradient>
    <linearGradient
       gradientUnits="userSpaceOnUse"
       y2="940.7403"
       x2="427.29453"
       y1="992.76318"
       x1="38.890873"
       id="linearGradient4235"
       xlink:href="#linearGradient4229" />
    <filter
       id="filter4237"
       style="color-interpolation-filters:sRGB;">
      <feOffset
         id="feOffset4239"
         dx="3"
         dy="3" />
      <feGaussianBlur
         id="feGaussianBlur4241"
         result="blur"
         stdDeviation="3" />
      <feFlood
         id="feFlood4243"
         result="flood"
         flood-opacity="1"
         flood-color="rgb(0,0,0)" />
      <feComposite
         id="feComposite4245"
         result="composite"
         operator="in"
         in2="SourceGraphic"
         in="flood" />
      <feBlend
         id="feBlend4247"
         mode="normal"
         in2="composite"
         in="blur" />
    </filter>
  </defs>
  <metadata
     id="metadata7">
    <rdf:RDF>
      <cc:Work
         rdf:about="">
        <dc:format>image/svg+xml</dc:format>
        <dc:type
           rdf:resource="http://purl.org/dc/dcmitype/StillImage" />
        <dc:title></dc:title>
      </cc:Work>
    </rdf:RDF>
  </metadata>
  <g
     transform="translate(0,-852.36216)"
     id="layer1">
    <path
       d="m 182.33253,971.04488 -34.05395,4.00369 -34.05396,4.0037 13.55968,-31.49344 13.55967,-31.49344 20.49428,27.48974 z"
       id="path4140"
       style="opacity:0.79299999;fill:#676722;fill-opacity:1;stroke:none;stroke-opacity:1" />
    <path
       d="m 250.2266,962.71114 -34.05395,4.00369 -34.05396,4.0037 13.55968,-31.49344 13.55967,-31.49344 20.49428,27.48974 z"
       id="path4140-0"
       style="opacity:0.79299999;fill:#676722;fill-opacity:1;stroke:none;stroke-opacity:1" />
    <path
       d="m 317.90684,954.6299 -34.05395,4.00369 -34.05396,4.0037 13.55968,-31.49344 13.55967,-31.49344 20.49428,27.48975 z"
       id="path4140-8"
       style="opacity:0.79299999;fill:#676722;fill-opacity:1;stroke:none;stroke-opacity:1" />
    <path
       d="m 385.98518,946.16988 -34.05396,4.00369 -34.05395,4.0037 13.55968,-31.49344 13.55967,-31.49344 20.49428,27.48974 z"
       id="path4140-02"
       style="opacity:0.79299999;fill:#676722;fill-opacity:1;stroke:none;stroke-opacity:1" />
    <path
       d="m 453.87925,937.83614 -34.05395,4.00369 -34.05396,4.0037 13.55968,-31.49344 13.55967,-31.49344 20.49428,27.48974 z"
       id="path4140-0-0"
       style="opacity:0.79299999;fill:#676722;fill-opacity:1;stroke:none;stroke-opacity:1" />
    <path
       d="m 521.55949,929.75496 -34.05396,4.0037 -34.05395,4.00369 13.55968,-31.49344 13.55967,-31.49343 20.49428,27.48974 z"
       id="path4140-8-7"
       style="opacity:0.79299999;fill:#676722;fill-opacity:1;stroke:none;stroke-opacity:1" />
    <path
       d="m 223.54969,1025.7825 -34.05395,4.0037 -34.05396,4.0037 13.55968,-31.4935 13.55967,-31.4934 20.49428,27.48974 z"
       id="path4140-6"
       style="opacity:0.79299999;fill:#676722;fill-opacity:1;stroke:none;stroke-opacity:1" />
    <path
       d="m 291.44377,1017.4487 -34.05396,4.0037 -34.05395,4.0037 13.55967,-31.4934 13.55968,-31.49344 20.49428,27.48974 z"
       id="path4140-0-9"
       style="opacity:0.79299999;fill:#676722;fill-opacity:1;stroke:none;stroke-opacity:1" />
    <path
       d="m 359.124,1009.3675 -34.05395,4.0037 -34.05396,4.0037 13.55968,-31.49344 13.55967,-31.49344 20.49428,27.48975 z"
       id="path4140-8-2"
       style="opacity:0.79299999;fill:#676722;fill-opacity:1;stroke:none;stroke-opacity:1" />
    <path
       d="m 427.20234,1000.9075 -34.05395,4.0037 -34.05396,4.0037 13.55968,-31.49346 13.55967,-31.49344 20.49428,27.48974 z"
       id="path4140-02-4"
       style="opacity:0.79299999;fill:#676722;fill-opacity:1;stroke:none;stroke-opacity:1" />
    <path
       d="m 495.09645,992.57375 -34.05396,4.00369 -34.05395,4.00366 13.55967,-31.4934 13.55968,-31.49344 20.49428,27.48974 z"
       id="path4140-0-0-3"
       style="opacity:0.79299999;fill:#676722;fill-opacity:1;stroke:none;stroke-opacity:1" />
    <path
       d="m 209.40757,907.59468 -34.05395,4.0037 -34.05396,4.00369 13.55968,-31.49344 13.55967,-31.49343 20.49428,27.48974 z"
       id="path4140-2"
       style="opacity:0.79299999;fill:#676722;fill-opacity:1;stroke:none;stroke-opacity:1" />
    <path
       d="m 277.30165,899.26094 -34.05396,4.0037 -34.05395,4.00369 13.55967,-31.49344 13.55968,-31.49343 20.49428,27.48974 z"
       id="path4140-0-2"
       style="opacity:0.79299999;fill:#676722;fill-opacity:1;stroke:none;stroke-opacity:1" />
    <path
       d="m 344.98188,891.17964 -34.05395,4.0037 -34.05396,4.00369 13.55968,-31.49343 13.55967,-31.49344 20.49428,27.48974 z"
       id="path4140-8-71"
       style="opacity:0.79299999;fill:#676722;fill-opacity:1;stroke:none;stroke-opacity:1" />
    <path
       d="m 413.06022,882.71968 -34.05395,4.0037 -34.05396,4.00369 13.55968,-31.49344 13.55967,-31.49343 20.49428,27.48974 z"
       id="path4140-02-7"
       style="opacity:0.79299999;fill:#676722;fill-opacity:1;stroke:none;stroke-opacity:1" />
    <path
       d="m 480.9543,874.38594 -34.05396,4.0037 -34.05395,4.00369 13.55967,-31.49344 13.55968,-31.49343 20.49428,27.48974 z"
       id="path4140-0-0-0"
       style="opacity:0.79299999;fill:#676722;fill-opacity:1;stroke:none;stroke-opacity:1" />
    <text
       id="text4225"
       y="1015.9967"
       x="11.11168"
       style="font-style:normal;font-variant:normal;font-weight:normal;font-stretch:normal;font-size:180px;line-height:50%;font-family:sans-serif;-inkscape-font-specification:'sans-serif, Normal';text-align:start;letter-spacing:0px;word-spacing:0px;writing-mode:lr-tb;text-anchor:start;fill:url(#linearGradient4235);fill-opacity:1;stroke:none;stroke-width:1px;stroke-linecap:butt;stroke-linejoin:miter;stroke-opacity:1;filter:url(#filter4237)"
       xml:space="preserve"><tspan
         style="font-style:normal;font-variant:normal;font-weight:normal;font-stretch:normal;font-size:180px;font-family:'Sakkal Majalla';-inkscape-font-specification:'Sakkal Majalla';fill-opacity:1;fill:url(#linearGradient4235)"
         y="1015.9967"
         x="11.11168"
         id="tspan4227">TriChess</tspan></text>
  </g>
</svg>
